<svg xmlns="http://www.w3.org/2000/svg" xmlns:xlink="http://www.w3.org/1999/xlink" width="500" zoomAndPan="magnify" viewBox="0 0 375 374.999991" height="500" preserveAspectRatio="xMidYMid meet" version="1.2"><defs><clipPath id="8e68f2bb28"><path d="M 101.121094 132.234375 L 161 132.234375 L 161 234 L 101.121094 234 Z M 101.121094 132.234375 "/></clipPath><clipPath id="03a7ba1564"><path d="M 103 233 L 113 233 L 113 242.484375 L 103 242.484375 Z M 103 233 "/></clipPath><clipPath id="f0ccc2b4f9"><path d="M 149 233 L 159 233 L 159 242.484375 L 149 242.484375 Z M 149 233 "/></clipPath></defs><g id="96e45a401f"><g clip-rule="nonzero" clip-path="url(#8e68f2bb28)"><path style=" stroke:none;fill-rule:nonzero;fill:#008080;fill-opacity:1;" d="M 148.121094 152.363281 L 139.390625 152.363281 L 139.390625 137.015625 C 140.316406 136.621094 140.84375 135.828125 140.84375 134.898438 C 140.84375 133.578125 139.785156 132.519531 138.460938 132.519531 L 123.378906 132.519531 C 122.058594 132.519531 121 133.578125 121 134.898438 C 121 135.828125 121.660156 136.753906 122.453125 137.015625 L 122.453125 152.363281 L 113.722656 152.363281 C 106.710938 152.363281 101.019531 158.054688 101.019531 165.066406 L 101.019531 220.5 C 101.019531 227.511719 106.710938 233.199219 113.722656 233.199219 L 148.121094 233.199219 C 155.132812 233.199219 160.820312 227.511719 160.820312 220.5 L 160.820312 165.066406 C 160.820312 158.054688 155.132812 152.363281 148.121094 152.363281 Z M 137.140625 152.363281 L 124.570312 152.363281 L 124.570312 137.28125 L 137.140625 137.28125 Z M 137.140625 152.363281 "/></g><g clip-rule="nonzero" clip-path="url(#03a7ba1564)"><path style=" stroke:none;fill-rule:nonzero;fill:#008080;fill-opacity:1;" d="M 107.769531 233.199219 C 105.253906 233.199219 103.269531 235.183594 103.269531 237.699219 C 103.269531 240.210938 105.253906 242.195312 107.769531 242.195312 C 110.28125 242.195312 112.265625 240.210938 112.265625 237.699219 C 112.265625 235.183594 110.28125 233.199219 107.769531 233.199219 Z M 107.769531 239.417969 C 106.710938 239.417969 105.917969 238.625 105.917969 237.566406 C 105.917969 236.507812 106.710938 235.714844 107.769531 235.714844 C 108.828125 235.714844 109.621094 236.507812 109.621094 237.566406 C 109.621094 238.625 108.828125 239.417969 107.769531 239.417969 Z M 107.769531 239.417969 "/></g><g clip-rule="nonzero" clip-path="url(#f0ccc2b4f9)"><path style=" stroke:none;fill-rule:nonzero;fill:#008080;fill-opacity:1;" d="M 154.074219 233.199219 C 151.558594 233.199219 149.574219 235.183594 149.574219 237.699219 C 149.574219 240.210938 151.558594 242.195312 154.074219 242.195312 C 156.589844 242.195312 158.574219 240.210938 158.574219 237.699219 C 158.574219 235.183594 156.457031 233.199219 154.074219 233.199219 Z M 154.074219 239.417969 C 153.015625 239.417969 152.222656 238.625 152.222656 237.566406 C 152.222656 236.507812 153.015625 235.714844 154.074219 235.714844 C 155.132812 235.714844 155.925781 236.507812 155.925781 237.566406 C 155.792969 238.625 155 239.417969 154.074219 239.417969 Z M 154.074219 239.417969 "/></g><g style="fill:#ffffff;fill-opacity:1;"><g transform="translate(114.22556, 211.015256)"><path style="stroke:none" d="M 32.890625 -30.5625 L 21.21875 -30.5625 L 21.21875 0 L 12.359375 0 L 12.359375 -30.5625 L 0.640625 -30.5625 L 0.640625 -38.34375 L 32.890625 -38.34375 Z M 32.890625 -30.5625 "/></g></g><g style="fill:#008080;fill-opacity:1;"><g transform="translate(60.597625, 211.611665)"><path style="stroke:none" d="M 34.5 -15.3125 C 34.5 -12.082031 33.929688 -9.28125 32.796875 -6.90625 C 31.671875 -4.53125 29.976562 -2.695312 27.71875 -1.40625 C 25.457031 -0.113281 22.613281 0.53125 19.1875 0.53125 C 15.695312 0.53125 12.828125 -0.128906 10.578125 -1.453125 C 8.335938 -2.773438 6.679688 -4.609375 5.609375 -6.953125 C 4.546875 -9.296875 4.015625 -11.984375 4.015625 -15.015625 L 4.015625 -37.9375 L 11.921875 -37.9375 L 11.875 -15.21875 C 11.875 -12.40625 12.582031 -10.335938 14 -9.015625 C 15.425781 -7.691406 17.171875 -7.03125 19.234375 -7.03125 C 21.660156 -7.03125 23.519531 -7.765625 24.8125 -9.234375 C 26.101562 -10.703125 26.75 -12.628906 26.75 -15.015625 L 26.75 -37.9375 L 34.5 -37.9375 Z M 34.5 -15.3125 "/></g></g><g style="fill:#008080;fill-opacity:1;"><g transform="translate(162.876263, 211.015239)"><path style="stroke:none" d="M 19.859375 -18.515625 C 19.285156 -18.609375 18.691406 -18.65625 18.078125 -18.65625 C 16.359375 -18.65625 14.984375 -18.304688 13.953125 -17.609375 C 12.921875 -16.921875 12.175781 -15.992188 11.71875 -14.828125 C 11.269531 -13.660156 11.046875 -12.367188 11.046875 -10.953125 L 11.046875 0 L 3.484375 0 L 3.484375 -25.875 L 11 -25.875 L 11 -21.90625 L 11.046875 -21.90625 C 11.566406 -23.03125 12.460938 -24.019531 13.734375 -24.875 C 15.015625 -25.738281 16.554688 -26.171875 18.359375 -26.171875 C 18.972656 -26.171875 19.472656 -26.101562 19.859375 -25.96875 Z M 19.859375 -18.515625 "/></g></g><g style="fill:#008080;fill-opacity:1;"><g transform="translate(180.756567, 211.015239)"><path style="stroke:none" d="M 10.75 0.484375 C 9.207031 0.484375 7.769531 0.175781 6.4375 -0.4375 C 5.113281 -1.050781 4.046875 -1.9375 3.234375 -3.09375 C 2.429688 -4.257812 2.03125 -5.632812 2.03125 -7.21875 L 2.03125 -7.3125 C 2.03125 -8.925781 2.378906 -10.242188 3.078125 -11.265625 C 3.773438 -12.285156 4.695312 -13.09375 5.84375 -13.6875 C 6.988281 -14.28125 8.238281 -14.691406 9.59375 -14.921875 C 10.945312 -15.148438 12.269531 -15.265625 13.5625 -15.265625 L 16.140625 -15.265625 C 16.847656 -15.265625 17.363281 -15.445312 17.6875 -15.8125 C 18.007812 -16.1875 18.171875 -16.632812 18.171875 -17.15625 C 18.171875 -17.988281 17.832031 -18.726562 17.15625 -19.375 C 16.476562 -20.019531 15.425781 -20.34375 14 -20.34375 C 12.644531 -20.34375 11.503906 -20.046875 10.578125 -19.453125 C 9.660156 -18.859375 8.878906 -17.992188 8.234375 -16.859375 L 2.46875 -20.296875 C 3.5 -22.203125 5 -23.703125 6.96875 -24.796875 C 8.945312 -25.898438 11.40625 -26.453125 14.34375 -26.453125 C 16.539062 -26.453125 18.484375 -26.070312 20.171875 -25.3125 C 21.867188 -24.550781 23.191406 -23.394531 24.140625 -21.84375 C 25.097656 -20.300781 25.578125 -18.363281 25.578125 -16.03125 L 25.578125 0 L 18.609375 0 L 18.609375 -3.203125 L 18.515625 -3.25 C 17.546875 -1.851562 16.363281 -0.878906 14.96875 -0.328125 C 13.582031 0.210938 12.175781 0.484375 10.75 0.484375 Z M 12.9375 -5.046875 C 14.613281 -5.046875 15.894531 -5.535156 16.78125 -6.515625 C 17.675781 -7.503906 18.125 -8.675781 18.125 -10.03125 L 18.125 -10.609375 L 13.5625 -10.609375 C 12.5625 -10.609375 11.65625 -10.375 10.84375 -9.90625 C 10.039062 -9.4375 9.640625 -8.6875 9.640625 -7.65625 C 9.640625 -6.75 9.960938 -6.085938 10.609375 -5.671875 C 11.253906 -5.253906 12.03125 -5.046875 12.9375 -5.046875 Z M 12.9375 -5.046875 "/></g></g><g style="fill:#008080;fill-opacity:1;"><g transform="translate(206.632253, 211.015239)"><path style="stroke:none" d="M 0.671875 -25.875 L 8.671875 -25.875 L 15.0625 -8.625 L 21.46875 -25.875 L 29.453125 -25.875 L 18.84375 0 L 11.140625 0 Z M 0.671875 -25.875 "/></g></g><g style="fill:#008080;fill-opacity:1;"><g transform="translate(233.574001, 211.015239)"><path style="stroke:none" d="M 9.59375 -10.859375 C 9.851562 -9.242188 10.585938 -7.988281 11.796875 -7.09375 C 13.003906 -6.207031 14.398438 -5.765625 15.984375 -5.765625 C 17.085938 -5.765625 18.179688 -6.035156 19.265625 -6.578125 C 20.347656 -7.128906 21.175781 -7.890625 21.75 -8.859375 L 27.234375 -5.28125 C 25.066406 -1.375 21.351562 0.578125 16.09375 0.578125 C 13.46875 0.578125 11.082031 0.00390625 8.9375 -1.140625 C 6.789062 -2.285156 5.078125 -3.875 3.796875 -5.90625 C 2.523438 -7.945312 1.890625 -10.304688 1.890625 -12.984375 C 1.890625 -14.859375 2.25 -16.609375 2.96875 -18.234375 C 3.695312 -19.867188 4.691406 -21.304688 5.953125 -22.546875 C 7.210938 -23.796875 8.664062 -24.765625 10.3125 -25.453125 C 11.96875 -26.148438 13.734375 -26.5 15.609375 -26.5 C 18.191406 -26.5 20.441406 -25.945312 22.359375 -24.84375 C 24.285156 -23.75 25.785156 -22.234375 26.859375 -20.296875 C 27.941406 -18.359375 28.484375 -16.113281 28.484375 -13.5625 C 28.484375 -13.113281 28.484375 -12.660156 28.484375 -12.203125 C 28.484375 -11.753906 28.453125 -11.304688 28.390625 -10.859375 Z M 20.9375 -15.84375 C 20.90625 -16.488281 20.6875 -17.15625 20.28125 -17.84375 C 19.875 -18.539062 19.273438 -19.128906 18.484375 -19.609375 C 17.691406 -20.097656 16.664062 -20.34375 15.40625 -20.34375 C 14.28125 -20.34375 13.3125 -20.082031 12.5 -19.5625 C 11.695312 -19.050781 11.066406 -18.445312 10.609375 -17.75 C 10.160156 -17.0625 9.882812 -16.425781 9.78125 -15.84375 Z M 20.9375 -15.84375 "/></g></g><g style="fill:#008080;fill-opacity:1;"><g transform="translate(261.824094, 211.015239)"><path style="stroke:none" d="M 11.09375 -39.484375 L 11.09375 0 L 3.484375 0 L 3.484375 -39.484375 Z M 11.09375 -39.484375 "/></g></g><g style="fill:#008080;fill-opacity:1;"><g transform="translate(274.277222, 211.015239)"><path style="stroke:none" d="M 4.40625 -37.9375 L 29.265625 -37.9375 L 29.265625 -30.578125 L 12.15625 -30.578125 L 12.15625 -22.875 L 27.46875 -22.875 L 27.46875 -15.5 L 12.15625 -15.5 L 12.15625 -7.3125 L 29.359375 -7.3125 L 29.359375 0 L 4.40625 0 Z M 4.40625 -37.9375 "/></g></g><g style="fill:#008080;fill-opacity:1;"><g transform="translate(304.271762, 211.015239)"><path style="stroke:none" d="M 1.984375 0 L 1.984375 -6.921875 L 20.890625 -30.671875 L 2.765625 -30.671875 L 2.765625 -37.9375 L 30.625 -37.9375 L 30.625 -31.203125 L 11.78125 -7.265625 L 31.015625 -7.265625 L 31.0625 0 Z M 1.984375 0 "/></g></g></g></svg>